<mxfile host="app.diagrams.net" modified="2023-09-11T08:07:18.104Z" agent="Mozilla/5.0 (Windows NT 10.0; Win64; x64) AppleWebKit/537.36 (KHTML, like Gecko) Chrome/115.0.0.0 Safari/537.36 OPR/101.0.0.0" etag="V2v7bTDGP0yDJVvIJhcJ" version="21.5.1" type="device">
  <diagram name="Seite-1" id="pfCEiYjsCeP78EX_pHVQ">
    <mxGraphModel dx="1114" dy="613" grid="1" gridSize="10" guides="1" tooltips="1" connect="1" arrows="1" fold="1" page="1" pageScale="1" pageWidth="1169" pageHeight="827" math="0" shadow="0">
      <root>
        <mxCell id="0" />
        <mxCell id="1" parent="0" />
        <mxCell id="mrsANiAnsjSYnMeVVTr--11" value="" style="rounded=0;whiteSpace=wrap;html=1;fillColor=none;dashed=1;connectable=0;" parent="1" vertex="1">
          <mxGeometry x="220" y="181" width="480" height="320" as="geometry" />
        </mxCell>
        <mxCell id="e-z7ntLDfmXItiGVWMEw-10" style="edgeStyle=orthogonalEdgeStyle;rounded=0;orthogonalLoop=1;jettySize=auto;html=1;entryX=0.5;entryY=0;entryDx=0;entryDy=0;startArrow=classic;startFill=1;" parent="1" source="e-z7ntLDfmXItiGVWMEw-1" target="e-z7ntLDfmXItiGVWMEw-2" edge="1">
          <mxGeometry relative="1" as="geometry" />
        </mxCell>
        <mxCell id="e-z7ntLDfmXItiGVWMEw-1" value="uC - Platine" style="rounded=0;whiteSpace=wrap;html=1;" parent="1" vertex="1">
          <mxGeometry x="400" y="201" width="120" height="40" as="geometry" />
        </mxCell>
        <mxCell id="e-z7ntLDfmXItiGVWMEw-11" style="edgeStyle=orthogonalEdgeStyle;rounded=0;orthogonalLoop=1;jettySize=auto;html=1;entryX=0;entryY=0.5;entryDx=0;entryDy=0;" parent="1" source="e-z7ntLDfmXItiGVWMEw-2" target="e-z7ntLDfmXItiGVWMEw-3" edge="1">
          <mxGeometry relative="1" as="geometry" />
        </mxCell>
        <mxCell id="e-z7ntLDfmXItiGVWMEw-13" style="edgeStyle=orthogonalEdgeStyle;rounded=0;orthogonalLoop=1;jettySize=auto;html=1;entryX=0.5;entryY=0;entryDx=0;entryDy=0;" parent="1" source="e-z7ntLDfmXItiGVWMEw-2" target="e-z7ntLDfmXItiGVWMEw-6" edge="1">
          <mxGeometry relative="1" as="geometry" />
        </mxCell>
        <mxCell id="e-z7ntLDfmXItiGVWMEw-2" value="Sensor Platine" style="rounded=0;whiteSpace=wrap;html=1;" parent="1" vertex="1">
          <mxGeometry x="400" y="281" width="120" height="40" as="geometry" />
        </mxCell>
        <mxCell id="e-z7ntLDfmXItiGVWMEw-12" style="edgeStyle=orthogonalEdgeStyle;rounded=0;orthogonalLoop=1;jettySize=auto;html=1;entryX=0.5;entryY=0;entryDx=0;entryDy=0;" parent="1" source="e-z7ntLDfmXItiGVWMEw-3" target="e-z7ntLDfmXItiGVWMEw-4" edge="1">
          <mxGeometry relative="1" as="geometry" />
        </mxCell>
        <mxCell id="e-z7ntLDfmXItiGVWMEw-3" value="Kamera" style="rounded=0;whiteSpace=wrap;html=1;" parent="1" vertex="1">
          <mxGeometry x="560" y="281" width="120" height="40" as="geometry" />
        </mxCell>
        <mxCell id="e-z7ntLDfmXItiGVWMEw-4" value="VTX" style="rounded=0;whiteSpace=wrap;html=1;" parent="1" vertex="1">
          <mxGeometry x="560" y="361" width="120" height="40" as="geometry" />
        </mxCell>
        <mxCell id="e-z7ntLDfmXItiGVWMEw-9" style="edgeStyle=orthogonalEdgeStyle;rounded=0;orthogonalLoop=1;jettySize=auto;html=1;" parent="1" source="e-z7ntLDfmXItiGVWMEw-5" target="e-z7ntLDfmXItiGVWMEw-2" edge="1">
          <mxGeometry relative="1" as="geometry">
            <Array as="points">
              <mxPoint x="390" y="300" />
              <mxPoint x="390" y="300" />
            </Array>
          </mxGeometry>
        </mxCell>
        <mxCell id="e-z7ntLDfmXItiGVWMEw-5" value="Empfänger 2,4GHz" style="rounded=0;whiteSpace=wrap;html=1;" parent="1" vertex="1">
          <mxGeometry x="240" y="281" width="120" height="40" as="geometry" />
        </mxCell>
        <mxCell id="e-z7ntLDfmXItiGVWMEw-14" style="edgeStyle=orthogonalEdgeStyle;rounded=0;orthogonalLoop=1;jettySize=auto;html=1;entryX=0.5;entryY=0;entryDx=0;entryDy=0;" parent="1" source="e-z7ntLDfmXItiGVWMEw-6" target="e-z7ntLDfmXItiGVWMEw-8" edge="1">
          <mxGeometry relative="1" as="geometry" />
        </mxCell>
        <mxCell id="e-z7ntLDfmXItiGVWMEw-6" value="ESC" style="rounded=0;whiteSpace=wrap;html=1;" parent="1" vertex="1">
          <mxGeometry x="400" y="361" width="120" height="40" as="geometry" />
        </mxCell>
        <mxCell id="e-z7ntLDfmXItiGVWMEw-15" style="edgeStyle=orthogonalEdgeStyle;rounded=0;orthogonalLoop=1;jettySize=auto;html=1;entryX=0.25;entryY=1;entryDx=0;entryDy=0;" parent="1" source="e-z7ntLDfmXItiGVWMEw-7" target="e-z7ntLDfmXItiGVWMEw-2" edge="1">
          <mxGeometry relative="1" as="geometry">
            <mxPoint x="370" y="311" as="targetPoint" />
            <Array as="points">
              <mxPoint x="300" y="340" />
              <mxPoint x="430" y="340" />
            </Array>
          </mxGeometry>
        </mxCell>
        <mxCell id="e-z7ntLDfmXItiGVWMEw-17" value="" style="edgeStyle=orthogonalEdgeStyle;rounded=0;orthogonalLoop=1;jettySize=auto;html=1;" parent="1" source="e-z7ntLDfmXItiGVWMEw-7" target="e-z7ntLDfmXItiGVWMEw-6" edge="1">
          <mxGeometry relative="1" as="geometry" />
        </mxCell>
        <mxCell id="e-z7ntLDfmXItiGVWMEw-7" value="Batterie" style="rounded=0;whiteSpace=wrap;html=1;" parent="1" vertex="1">
          <mxGeometry x="240" y="361" width="120" height="40" as="geometry" />
        </mxCell>
        <mxCell id="e-z7ntLDfmXItiGVWMEw-8" value="Motoren" style="rounded=0;whiteSpace=wrap;html=1;" parent="1" vertex="1">
          <mxGeometry x="400" y="441" width="120" height="40" as="geometry" />
        </mxCell>
        <mxCell id="mrsANiAnsjSYnMeVVTr--3" style="edgeStyle=orthogonalEdgeStyle;rounded=0;orthogonalLoop=1;jettySize=auto;html=1;entryX=0;entryY=0.5;entryDx=0;entryDy=0;endArrow=none;endFill=0;" parent="1" source="mrsANiAnsjSYnMeVVTr--1" target="e-z7ntLDfmXItiGVWMEw-5" edge="1">
          <mxGeometry relative="1" as="geometry">
            <Array as="points">
              <mxPoint x="200" y="300" />
              <mxPoint x="240" y="300" />
            </Array>
          </mxGeometry>
        </mxCell>
        <mxCell id="mrsANiAnsjSYnMeVVTr--1" value="" style="verticalLabelPosition=bottom;shadow=0;dashed=0;align=center;html=1;verticalAlign=top;shape=mxgraph.electrical.radio.aerial_-_antenna_1;" parent="1" vertex="1">
          <mxGeometry x="190" y="231" width="20" height="30" as="geometry" />
        </mxCell>
        <mxCell id="mrsANiAnsjSYnMeVVTr--6" value="Fernbedinung" style="whiteSpace=wrap;html=1;" parent="1" vertex="1">
          <mxGeometry x="10" y="270" width="120" height="40" as="geometry" />
        </mxCell>
        <mxCell id="mrsANiAnsjSYnMeVVTr--8" style="edgeStyle=orthogonalEdgeStyle;rounded=0;orthogonalLoop=1;jettySize=auto;html=1;entryX=0.5;entryY=0;entryDx=0;entryDy=0;endArrow=none;endFill=0;" parent="1" source="mrsANiAnsjSYnMeVVTr--7" edge="1">
          <mxGeometry relative="1" as="geometry">
            <mxPoint x="79.99999999999977" y="281" as="targetPoint" />
          </mxGeometry>
        </mxCell>
        <mxCell id="mrsANiAnsjSYnMeVVTr--7" value="" style="verticalLabelPosition=bottom;shadow=0;dashed=0;align=center;html=1;verticalAlign=top;shape=mxgraph.electrical.radio.aerial_-_antenna_1;" parent="1" vertex="1">
          <mxGeometry x="70" y="231" width="20" height="30" as="geometry" />
        </mxCell>
        <mxCell id="mrsANiAnsjSYnMeVVTr--9" value="" style="sketch=0;pointerEvents=1;shadow=0;dashed=0;html=1;strokeColor=none;labelPosition=center;verticalLabelPosition=bottom;verticalAlign=top;align=center;fillColor=#000000;shape=mxgraph.mscae.enterprise.wireless_connection" parent="1" vertex="1">
          <mxGeometry x="110" y="201" width="60" height="60" as="geometry" />
        </mxCell>
        <mxCell id="mrsANiAnsjSYnMeVVTr--15" style="edgeStyle=orthogonalEdgeStyle;rounded=0;orthogonalLoop=1;jettySize=auto;html=1;endArrow=none;endFill=0;" parent="1" source="mrsANiAnsjSYnMeVVTr--12" edge="1">
          <mxGeometry relative="1" as="geometry">
            <mxPoint x="680" y="381" as="targetPoint" />
            <Array as="points">
              <mxPoint x="740" y="381" />
            </Array>
          </mxGeometry>
        </mxCell>
        <mxCell id="mrsANiAnsjSYnMeVVTr--12" value="" style="verticalLabelPosition=bottom;shadow=0;dashed=0;align=center;html=1;verticalAlign=top;shape=mxgraph.electrical.radio.aerial_-_antenna_1;" parent="1" vertex="1">
          <mxGeometry x="730" y="331" width="20" height="30" as="geometry" />
        </mxCell>
        <mxCell id="mrsANiAnsjSYnMeVVTr--18" style="edgeStyle=orthogonalEdgeStyle;rounded=0;orthogonalLoop=1;jettySize=auto;html=1;entryX=0;entryY=0.5;entryDx=0;entryDy=0;endArrow=none;endFill=0;" parent="1" source="mrsANiAnsjSYnMeVVTr--16" target="mrsANiAnsjSYnMeVVTr--17" edge="1">
          <mxGeometry relative="1" as="geometry">
            <Array as="points">
              <mxPoint x="840" y="381" />
            </Array>
          </mxGeometry>
        </mxCell>
        <mxCell id="mrsANiAnsjSYnMeVVTr--16" value="" style="verticalLabelPosition=bottom;shadow=0;dashed=0;align=center;html=1;verticalAlign=top;shape=mxgraph.electrical.radio.aerial_-_antenna_1;" parent="1" vertex="1">
          <mxGeometry x="830" y="331" width="20" height="30" as="geometry" />
        </mxCell>
        <mxCell id="mrsANiAnsjSYnMeVVTr--21" value="" style="edgeStyle=orthogonalEdgeStyle;rounded=0;orthogonalLoop=1;jettySize=auto;html=1;" parent="1" source="mrsANiAnsjSYnMeVVTr--17" target="mrsANiAnsjSYnMeVVTr--20" edge="1">
          <mxGeometry relative="1" as="geometry" />
        </mxCell>
        <mxCell id="mrsANiAnsjSYnMeVVTr--23" value="" style="edgeStyle=orthogonalEdgeStyle;rounded=0;orthogonalLoop=1;jettySize=auto;html=1;" parent="1" source="mrsANiAnsjSYnMeVVTr--17" target="mrsANiAnsjSYnMeVVTr--22" edge="1">
          <mxGeometry relative="1" as="geometry" />
        </mxCell>
        <mxCell id="mrsANiAnsjSYnMeVVTr--17" value="5,8GHz Empfänger" style="rounded=0;whiteSpace=wrap;html=1;" parent="1" vertex="1">
          <mxGeometry x="880" y="361" width="120" height="40" as="geometry" />
        </mxCell>
        <mxCell id="mrsANiAnsjSYnMeVVTr--19" value="" style="sketch=0;pointerEvents=1;shadow=0;dashed=0;html=1;strokeColor=none;labelPosition=center;verticalLabelPosition=bottom;verticalAlign=top;align=center;fillColor=#000000;shape=mxgraph.mscae.enterprise.wireless_connection;direction=east;" parent="1" vertex="1">
          <mxGeometry x="762" y="291" width="60" height="60" as="geometry" />
        </mxCell>
        <mxCell id="mrsANiAnsjSYnMeVVTr--20" value="VR-Brille" style="rounded=0;whiteSpace=wrap;html=1;" parent="1" vertex="1">
          <mxGeometry x="1040" y="361" width="120" height="40" as="geometry" />
        </mxCell>
        <mxCell id="mrsANiAnsjSYnMeVVTr--25" value="" style="edgeStyle=orthogonalEdgeStyle;rounded=0;orthogonalLoop=1;jettySize=auto;html=1;" parent="1" source="mrsANiAnsjSYnMeVVTr--22" target="mrsANiAnsjSYnMeVVTr--24" edge="1">
          <mxGeometry relative="1" as="geometry" />
        </mxCell>
        <mxCell id="mrsANiAnsjSYnMeVVTr--22" value="Server" style="rounded=0;whiteSpace=wrap;html=1;" parent="1" vertex="1">
          <mxGeometry x="880" y="441" width="120" height="40" as="geometry" />
        </mxCell>
        <mxCell id="mrsANiAnsjSYnMeVVTr--24" value="Flutter App" style="rounded=0;whiteSpace=wrap;html=1;" parent="1" vertex="1">
          <mxGeometry x="880" y="521" width="120" height="40" as="geometry" />
        </mxCell>
        <mxCell id="mrsANiAnsjSYnMeVVTr--26" value="&lt;font face=&quot;Verdana&quot; style=&quot;font-size: 27px;&quot;&gt;FPV Drone&lt;/font&gt;" style="text;html=1;align=center;verticalAlign=middle;resizable=0;points=[];autosize=1;strokeColor=none;fillColor=none;" parent="1" vertex="1">
          <mxGeometry x="375" y="131" width="170" height="50" as="geometry" />
        </mxCell>
        <mxCell id="LUxuQyWUUqX6M0QpO3Is-6" value="" style="shape=image;verticalLabelPosition=bottom;labelBackgroundColor=default;verticalAlign=top;aspect=fixed;imageAspect=0;image=https://static.thenounproject.com/png/3015-200.png;connectable=0;" vertex="1" parent="1">
          <mxGeometry x="230" y="1150" width="260" height="260" as="geometry" />
        </mxCell>
        <mxCell id="LUxuQyWUUqX6M0QpO3Is-7" value="" style="sketch=0;pointerEvents=1;shadow=0;dashed=0;html=1;strokeColor=none;fillColor=#000000;labelPosition=center;verticalLabelPosition=bottom;verticalAlign=top;outlineConnect=0;align=center;shape=mxgraph.office.devices.cell_phone_android_standalone;aspect=fixed;connectable=0;" vertex="1" parent="1">
          <mxGeometry x="699" y="1356" width="92.72" height="170" as="geometry" />
        </mxCell>
        <mxCell id="LUxuQyWUUqX6M0QpO3Is-9" value="" style="shape=image;verticalLabelPosition=bottom;labelBackgroundColor=default;verticalAlign=top;aspect=fixed;imageAspect=0;image=https://cdn-icons-png.flaticon.com/512/2971/2971466.png;connectable=0;" vertex="1" parent="1">
          <mxGeometry x="870" y="1217" width="114.18" height="114.18" as="geometry" />
        </mxCell>
        <mxCell id="LUxuQyWUUqX6M0QpO3Is-10" value="" style="shape=image;verticalLabelPosition=bottom;labelBackgroundColor=default;verticalAlign=top;aspect=fixed;imageAspect=0;image=https://cdn.discordapp.com/attachments/1110259607466688633/1150700810494296134/3454400-200.png;connectable=0;" vertex="1" parent="1">
          <mxGeometry x="640" y="1140.54" width="155" height="155" as="geometry" />
        </mxCell>
        <mxCell id="LUxuQyWUUqX6M0QpO3Is-14" value="" style="shape=image;verticalLabelPosition=bottom;labelBackgroundColor=default;verticalAlign=top;aspect=fixed;imageAspect=0;image=https://uxwing.com/wp-content/themes/uxwing/download/computers-mobile-hardware/camera-drone-icon.png;connectable=0;" vertex="1" parent="1">
          <mxGeometry x="450" y="1020" width="222" height="120.54" as="geometry" />
        </mxCell>
        <mxCell id="LUxuQyWUUqX6M0QpO3Is-16" value="" style="endArrow=none;html=1;rounded=0;endSize=6;strokeWidth=8;startArrow=block;startFill=1;" edge="1" parent="1">
          <mxGeometry width="50" height="50" relative="1" as="geometry">
            <mxPoint x="745" y="1360" as="sourcePoint" />
            <mxPoint x="745" y="1290" as="targetPoint" />
          </mxGeometry>
        </mxCell>
        <mxCell id="LUxuQyWUUqX6M0QpO3Is-17" value="" style="endArrow=classic;html=1;rounded=0;endSize=6;strokeWidth=8;startArrow=none;startFill=0;endFill=1;" edge="1" parent="1">
          <mxGeometry width="50" height="50" relative="1" as="geometry">
            <mxPoint x="790" y="1270" as="sourcePoint" />
            <mxPoint x="880" y="1270" as="targetPoint" />
          </mxGeometry>
        </mxCell>
        <mxCell id="LUxuQyWUUqX6M0QpO3Is-20" value="" style="shape=image;verticalLabelPosition=bottom;labelBackgroundColor=default;verticalAlign=top;aspect=fixed;imageAspect=0;image=https://static-00.iconduck.com/assets.00/flutter-plain-icon-1655x2048-tm6fsmjb.png;" vertex="1" parent="1">
          <mxGeometry x="719.36" y="1401" width="50" height="61.86" as="geometry" />
        </mxCell>
      </root>
    </mxGraphModel>
  </diagram>
</mxfile>
